<?xml version="1.0" standalone="yes"?>
<svg xmlns="http://www.w3.org/2000/svg" width="1024" height="1024">
<path style="fill:#48a13b; stroke:none;" d="M0 0L0 1024L1024 1024L1024 0L0 0z"/>
<g transform="translate(-154, -169) scale(1.4285, 1.5059)">
<path style="fill:#1f231f; stroke:none;" d="M186 200L243 200L278 200L303 200C307.254 200 312.074 200.574 315.981 198.543C325.541 193.575 325.557 176.327 315.995 171.457C312.055 169.45 307.278 170 303 170L280 170C252.276 170 224.715 169 197 169C185.597 169 171.135 167.549 162.185 176.213C153.351 184.766 155.87 196.072 154.83 207C153.732 218.541 154.704 229.498 154.985 241C155.451 260.001 156 279.012 156 298L156 323C156 327.262 155.435 332.065 157.457 335.985C162.396 345.557 179.604 345.557 184.543 335.985C186.697 331.811 186 326.539 186 322L186 296L186 259L186 200M839 200L839 258C838.995 270.64 838 283.299 838 296L838 322C838 326.264 837.436 331.063 839.457 334.985C844.836 345.423 862.374 343.891 867.392 333.996C869.895 329.061 868.445 324.192 868.089 319C867.569 311.4 867.964 303.617 868.001 296C868.144 266.388 872.987 236.599 870.17 207C869.183 196.636 870.941 184.451 862.671 176.34C854.041 167.876 838.089 169 827 169C799.619 169 772.333 170 745 170L721 170C717.165 170 712.541 169.359 709.015 171.179C700.102 175.78 699.474 192.796 708.055 198.062C711.836 200.382 716.754 199.998 721 200L746 200L782 200L839 200M249 279L249 743L295 743L295 279L249 279M319 701L347 701L347 279L328 279C325.764 279.005 322.492 278.532 320.603 280.028C318.639 281.583 319.016 284.791 319.001 287C318.959 292.999 319 299 319 305L319 379L319 701M372 279L372 701L400 701L400 279L372 279M444.044 279.573C435.958 282.047 439 297.456 439 304L439 382L439 629L439 680C439 684.856 437.228 694.419 440.858 698.262C442.942 700.467 447.166 700.712 450 700.911C457.76 701.455 468.447 702.521 475.985 700.525C485.511 698.003 483 683.487 483 676L483 599L483 350L483 302C483 296.301 484.693 287.107 481.142 282.228C478.949 279.216 475.407 279.051 472 279.004C463.557 278.886 452.15 277.092 444.044 279.573M508 279L508 701L551 701L551 279L508 279M575 279L575 701L603 701L603 279L575 279M633.015 279.573C623.995 282.244 627 296.788 627 304L627 381L627 631L627 678C627 683.789 625.428 692.645 629.089 697.606C631.196 700.46 634.709 700.887 638 700.985C646.044 701.224 657.292 702.836 664.985 700.347C674.683 697.209 672 682.845 672 675L672 599L672 350L672 302C672 296.211 673.572 287.355 669.911 282.394C667.804 279.54 664.291 279.113 661 279.015C652.578 278.765 641.122 277.172 633.015 279.573M697 279L697 701L725 701L725 279L697 279M750 279L750 743L787 743L787 279L750 279M186 818C186 802.945 184.976 788.05 185 773C185.04 748.411 186 723.67 186 699C186 686.509 190.678 663.299 172 663.083C151.485 662.845 156 686.214 156 700C156 733.392 155 766.62 155 800C155 812.202 152.971 831.244 162.214 840.815C170.573 849.471 185.834 848.996 197 849C224.696 849.011 252.276 848 280 848L304 848C307.897 848 312.387 848.501 315.981 846.682C324.809 842.216 326.088 825.192 316.981 820.457C313.075 818.425 308.253 819 304 819L278 819L242 819C223.334 819 204.714 818 186 818M838 818C819.319 818 800.72 819 782 819L747 819L722 819C717.822 819 712.84 818.291 709.015 820.318C699.881 825.159 701.048 842.178 710.015 846.682C713.621 848.493 718.095 848 722 848L745 848C761.651 848 778.355 847.607 795 848.015C807.481 848.32 819.482 849.361 832 848.17C842.459 847.174 854.453 849.232 862.61 840.671C866.949 836.116 867.533 829.912 868.166 824C869.025 815.977 870 808.082 870 800C870 765.615 868 731.424 868 697C868 684.38 872.298 666.542 856 663.468C854.039 663.098 851.992 662.934 850 663.109C833.135 664.591 838 688.342 838 700L838 818z"/>
</g>
</svg>
